<svg version="1.1" id="Layer_1" xmlns="http://www.w3.org/2000/svg" xmlns:xlink="http://www.w3.org/1999/xlink" x="0px" y="0px"
	 width="100%" viewBox="0 0 1920 1280" enable-background="new 0 0 1920 1280" xml:space="preserve">
<path fill="#E77300" opacity="1.000000" stroke="none" 
	d="
M1.000000,428.000000 
	C1.000000,285.687805 1.000000,143.375641 1.000000,1.031725 
	C640.883728,1.031725 1280.767456,1.031725 1921.000000,1.031725 
	C1921.000000,143.029175 1921.000000,285.058655 1920.546753,427.449036 
	C1919.427002,427.802124 1918.760620,427.787384 1918.094116,427.787384 
	C1280.555786,427.786407 643.017456,427.786316 5.479163,427.795227 
	C3.986107,427.795258 2.493054,427.928833 1.000000,428.000000 
z"/>
<path fill="#329203" opacity="1.000000" stroke="none" 
	d="
M1921.000000,854.000000 
	C1921.000000,996.312195 1921.000000,1138.624390 1921.000000,1280.968262 
	C1281.116089,1280.968262 641.232239,1280.968262 1.000000,1280.968262 
	C1.000000,1138.970825 1.000000,996.941345 1.452038,854.557007 
	C2.403985,854.206787 2.903894,854.215393 3.403803,854.215393 
	C641.110291,854.216187 1278.816772,854.216614 1916.523315,854.207825 
	C1918.015503,854.207764 1919.507812,854.072205 1921.000000,854.000000 
z"/>
<path fill="#FFFFFF" opacity="1.000000" stroke="none" 
	d="
M1921.000000,853.538757 
	C1919.507812,854.072205 1918.015503,854.207764 1916.523315,854.207825 
	C1278.816772,854.216614 641.110291,854.216187 3.403803,854.215393 
	C2.903894,854.215393 2.403985,854.206787 1.452038,854.101074 
	C1.000000,712.307495 1.000000,570.614990 1.000000,428.461243 
	C2.493054,427.928833 3.986107,427.795258 5.479163,427.795227 
	C643.017456,427.786316 1280.555786,427.786407 1918.094116,427.787384 
	C1918.760620,427.787384 1919.427002,427.802124 1920.546753,427.904968 
	C1921.000000,569.692505 1921.000000,711.385010 1921.000000,853.538757 
M1133.754272,745.296387 
	C1150.758545,717.048584 1160.177246,686.501221 1162.357788,653.565674 
	C1164.050903,627.990723 1160.813110,603.115112 1152.999634,578.840698 
	C1141.032471,541.661560 1119.877930,510.449280 1089.845947,485.593475 
	C1061.664795,462.269653 1029.368042,447.631195 993.065735,441.791992 
	C959.862549,436.451324 927.448486,439.220154 895.727661,450.050323 
	C858.088257,462.901215 826.645874,484.862213 802.369263,516.349915 
	C764.999756,564.819580 752.018127,619.518066 762.951111,679.714600 
	C767.691528,705.815125 777.818970,729.926208 792.390869,752.051208 
	C807.681702,775.267883 826.965332,794.688232 850.299500,809.838867 
	C880.417236,829.393921 913.422607,840.315247 949.383972,842.473267 
	C974.787048,843.997742 999.561646,840.887573 1023.584167,832.877014 
	C1070.611328,817.195129 1107.353394,788.267273 1133.754272,745.296387 
z"/>
<path fill="#0B3A9D" opacity="1.000000" stroke="none" 
	d="
M1133.539551,745.591919 
	C1107.353394,788.267273 1070.611328,817.195129 1023.584167,832.877014 
	C999.561646,840.887573 974.787048,843.997742 949.383972,842.473267 
	C913.422607,840.315247 880.417236,829.393921 850.299500,809.838867 
	C826.965332,794.688232 807.681702,775.267883 792.390869,752.051208 
	C777.818970,729.926208 767.691528,705.815125 762.951111,679.714600 
	C752.018127,619.518066 764.999756,564.819580 802.369263,516.349915 
	C826.645874,484.862213 858.088257,462.901215 895.727661,450.050323 
	C927.448486,439.220154 959.862549,436.451324 993.065735,441.791992 
	C1029.368042,447.631195 1061.664795,462.269653 1089.845947,485.593475 
	C1119.877930,510.449280 1141.032471,541.661560 1152.999634,578.840698 
	C1160.813110,603.115112 1164.050903,627.990723 1162.357788,653.565674 
	C1160.177246,686.501221 1150.758545,717.048584 1133.539551,745.591919 
M1019.742554,472.366608 
	C1019.496460,471.987488 1019.250366,471.608368 1018.325623,470.894745 
	C1015.690491,469.989288 1013.055420,469.083832 1009.430481,467.838257 
	C1004.585693,490.976135 999.714233,513.822510 995.041321,536.709412 
	C992.064087,551.291016 991.305664,566.326843 984.868835,580.167358 
	C980.068176,590.489685 975.974487,601.145203 971.706970,611.709290 
	C969.925293,616.119385 968.509399,620.677368 966.582153,624.357117 
	C966.905884,622.899109 967.217712,621.438293 967.555115,619.983398 
	C971.000061,605.128296 975.401001,590.507751 975.111511,574.926941 
	C974.997375,568.780334 976.681824,562.394714 978.594421,556.455200 
	C983.977722,539.737488 990.103760,523.259766 995.553101,506.562256 
	C999.747986,493.708801 1003.361755,480.665710 1007.296204,467.498260 
	C1003.510986,466.678375 1000.375366,465.999176 997.292847,465.331482 
	C994.421204,473.786896 991.357422,476.330841 984.655762,476.108185 
	C978.630859,475.908020 976.061096,472.688446 973.614624,462.084290 
	C970.573486,462.084290 967.465820,462.084290 964.131348,462.084290 
	C964.046204,462.697296 963.852417,463.330597 963.887207,463.951050 
	C965.489807,492.532318 967.332581,521.102661 968.608765,549.698303 
	C969.035583,559.262817 968.366638,568.920654 967.563232,578.482483 
	C966.829224,587.218140 964.963440,595.854614 964.101807,604.584778 
	C963.300049,612.708557 963.164795,620.898132 962.736084,629.058777 
	C961.952209,626.232056 961.990967,623.428040 961.945801,620.625366 
	C961.691467,604.840637 961.771240,589.119141 957.565857,573.581482 
	C955.707642,566.715820 956.109741,559.049866 956.494263,551.800720 
	C957.720093,528.693176 959.517273,505.616577 960.874634,482.515137 
	C961.271179,475.765839 960.935608,468.973541 960.935608,462.229858 
	C957.386902,462.229858 954.285095,462.229858 951.202759,462.229858 
	C950.703674,470.514618 948.248840,474.450470 942.348755,475.787506 
	C933.578491,477.774872 930.490356,471.313385 927.487183,465.059662 
	C924.104248,465.850494 920.990234,466.578430 916.761536,467.566986 
	C925.545044,493.738129 934.015930,519.196350 942.649963,544.599121 
	C946.222107,555.108887 951.314331,565.290344 951.138977,576.661438 
	C950.936401,589.803528 953.907654,602.383301 956.619751,615.052795 
	C957.199402,617.760254 957.617859,620.502258 958.110596,623.228333 
	C956.797058,621.805786 956.376526,620.232056 955.901245,618.675049 
	C951.700806,604.915710 948.642151,590.804077 940.940979,578.241821 
	C937.983276,573.417114 936.201416,567.603699 935.028137,562.001160 
	C930.741455,541.530640 927.078918,520.930237 922.893066,500.437592 
	C920.682800,489.616791 917.877197,478.917603 915.286926,467.936798 
	C911.565552,469.161285 908.504639,470.168457 905.507507,471.154663 
	C907.214355,479.632690 906.025146,483.191345 900.592590,486.296234 
	C892.457153,490.946045 888.122681,484.830048 883.448303,479.951965 
	C880.470032,481.468506 877.677429,482.890472 874.689453,484.411926 
	C875.449463,485.794769 876.006653,486.979919 876.712891,488.068329 
	C892.177185,511.901428 907.815674,535.623596 923.042725,559.607117 
	C927.808594,567.113647 931.832703,575.154480 935.543396,583.249939 
	C939.322754,591.494934 942.132751,600.178833 945.681702,608.536987 
	C948.196777,614.460388 951.234985,620.161743 954.106445,625.917725 
	C954.106445,625.917725 954.172546,625.872437 953.509338,626.265198 
	C952.294678,624.287170 951.138916,622.269958 949.855408,620.337585 
	C943.345642,610.536804 937.581421,600.101135 930.042542,591.164673 
	C923.125549,582.965332 916.561768,574.833374 912.083496,565.038208 
	C906.499207,552.823853 900.854309,540.627441 894.834961,528.624268 
	C887.654236,514.305054 880.049072,500.198730 872.484070,485.725250 
	C869.157104,487.844391 866.422607,489.586212 863.733704,491.298950 
	C867.425476,498.403412 867.259338,503.148376 862.972046,507.271484 
	C856.454712,513.539307 850.504639,509.353790 844.642273,505.600983 
	C842.105225,507.828400 839.765259,509.882751 836.786438,512.497925 
	C852.505981,526.960510 867.577942,541.288147 883.159546,555.038147 
	C899.949829,569.854492 918.068176,583.076477 929.188293,603.555359 
	C933.759766,611.974243 941.712830,618.557007 947.692627,626.706482 
	C946.786987,625.994141 945.813293,625.352661 944.985962,624.558716 
	C934.437195,614.435974 924.198303,604.051331 911.148010,596.838440 
	C906.041748,594.016174 901.627808,589.552307 897.638672,585.163391 
	C877.706421,563.233643 858.012085,541.087585 838.267212,518.988037 
	C837.095703,517.676819 836.213562,516.107117 835.056946,514.458313 
	C831.989014,517.783875 829.855469,520.096558 827.604675,522.536377 
	C828.253845,523.296082 828.774048,523.915222 829.305298,524.524780 
	C833.435974,529.264282 833.927612,533.599121 830.903564,538.646057 
	C828.377747,542.861572 823.794983,545.078491 818.360962,542.868896 
	C813.455566,540.874329 811.545349,542.794434 809.658264,546.476746 
	C809.136536,547.494995 808.451050,548.429260 807.743164,549.557556 
	C808.687012,550.192505 809.452454,550.822754 810.313110,551.269531 
	C830.768616,561.888245 851.182007,572.590210 871.717773,583.051697 
	C884.244934,589.433411 898.383057,593.209167 908.583496,603.365417 
	C918.151001,612.891418 929.313660,619.952454 940.446960,627.210571 
	C942.104858,628.291382 943.685974,629.490051 945.048706,630.932983 
	C945.048706,630.932983 944.784424,631.222656 944.079651,631.121094 
	C931.679688,624.860657 920.157349,616.928101 906.506836,613.053406 
	C899.274658,611.000549 892.026978,607.978760 885.697021,603.959900 
	C865.630371,591.219727 846.038818,577.733765 826.162170,564.690613 
	C819.717896,560.461914 812.961243,556.709229 806.115662,552.599609 
	C804.370300,555.906555 802.917358,558.659363 801.478455,561.385742 
	C808.816345,566.610229 810.722412,570.790405 808.634094,576.804443 
	C806.728882,582.291443 801.938538,584.276611 792.364807,583.373840 
	C791.322083,586.372437 790.250916,589.452881 789.148804,592.622375 
	C789.847656,592.928467 790.426819,593.303406 791.057617,593.440979 
	C814.879639,598.635193 838.719543,603.747803 862.526855,609.008118 
	C874.481812,611.649658 886.559937,613.963745 898.237061,617.550293 
	C905.905396,619.905457 912.823486,624.597534 920.320984,627.643982 
	C928.071960,630.793457 936.117126,633.218811 943.955444,636.052795 
	C943.955444,636.052795 943.877136,636.144531 943.058838,636.246582 
	C941.919128,636.025574 940.778198,635.810303 939.639832,635.582764 
	C927.802368,633.216736 916.051819,629.728882 904.103149,628.806335 
	C892.895447,627.941101 882.133057,626.424988 871.530579,622.702454 
	C850.918396,615.465515 830.202942,608.518677 809.471619,601.627869 
	C802.652527,599.361206 795.652710,597.638489 788.525269,595.607117 
	C787.701843,599.359741 787.041199,602.370728 786.351379,605.514648 
	C792.549316,606.864075 796.657349,609.920227 797.045044,616.438721 
	C797.630981,626.291992 789.942261,627.380676 783.102966,629.072693 
	C782.944519,632.532410 782.803833,635.603455 782.607666,639.886841 
	C808.665161,638.384094 834.203003,636.724548 859.762146,635.517212 
	C872.327026,634.923584 885.289185,633.251709 897.427490,635.517883 
	C912.588135,638.348145 927.678406,639.387085 943.068420,640.619690 
	C942.953491,640.979370 942.838562,641.338989 941.821350,641.672668 
	C926.423401,642.338989 910.901733,640.871277 895.782593,645.784058 
	C890.701294,647.435120 884.893677,647.637817 879.481567,647.341797 
	C860.195557,646.286804 840.952515,644.405701 821.662292,643.482727 
	C808.912842,642.872681 796.110413,643.367126 783.180176,643.367126 
	C783.180176,645.912170 783.180176,649.149292 783.180176,652.351379 
	C791.722473,653.105164 795.288391,655.343567 796.688293,661.261230 
	C798.769592,670.059021 792.123535,673.016846 785.945007,676.087708 
	C786.755859,679.529480 787.491455,682.651978 788.477661,686.838196 
	C815.250061,677.789001 841.394836,668.742859 867.693726,660.169312 
	C877.725403,656.898865 887.987427,653.345215 898.368530,652.412048 
	C908.983948,651.457642 919.493530,650.559326 929.877808,648.137451 
	C935.314331,646.869507 940.818909,645.893066 946.292725,644.784973 
	C944.955872,646.087830 943.431274,646.591736 941.895691,647.059265 
	C927.179199,651.539917 912.096436,654.848267 898.672913,663.072754 
	C893.851685,666.026672 888.019653,667.737000 882.418030,668.937500 
	C862.453918,673.215942 842.361084,676.890259 822.376343,681.076904 
	C811.232727,683.411438 800.206604,686.306152 789.063660,688.963623 
	C790.268311,692.710938 791.266296,695.815308 792.254456,698.889221 
	C800.128113,696.733948 804.582520,698.257690 807.703125,703.880066 
	C810.684753,709.252075 809.267212,712.961731 801.153076,720.822327 
	C802.613220,723.642639 804.093567,726.501892 805.648254,729.504761 
	C807.185364,728.671936 808.240784,728.190063 809.203491,727.565369 
	C830.531311,713.727295 852.106812,700.249817 873.071289,685.881042 
	C885.619751,677.280518 898.244507,669.729614 913.052856,665.254578 
	C924.026001,661.938416 934.052734,655.490112 944.825317,650.807129 
	C944.825317,650.807129 945.155273,651.172180 944.823181,651.769165 
	C934.059021,658.940247 922.510742,665.196655 912.763306,673.553589 
	C903.962524,681.098755 895.160645,688.089172 884.644409,692.992493 
	C872.921204,698.458557 861.253479,704.063660 849.748352,709.971985 
	C835.643433,717.215576 821.732056,724.836121 807.480042,732.430603 
	C809.625549,735.795959 811.371460,738.534668 813.093384,741.235657 
	C820.445007,737.224121 824.641724,737.296387 829.018372,741.734314 
	C835.348389,748.153015 831.507690,754.145813 827.536499,760.006409 
	C829.791931,762.549805 831.855530,764.876892 834.036438,767.336243 
	C834.810669,766.682129 835.347473,766.322998 835.768860,765.858948 
	C851.331116,748.722778 866.977478,731.661560 882.400574,714.400818 
	C891.913147,703.754822 899.287354,690.866943 911.854004,683.423340 
	C922.884583,676.889587 932.234558,668.543091 941.590332,660.046936 
	C942.461304,659.255981 943.508118,658.658691 944.473206,657.971436 
	C943.931396,660.198120 942.589233,661.541321 941.367126,662.986023 
	C934.933899,670.590759 927.770203,677.720093 922.329712,685.982239 
	C916.790588,694.394165 911.120728,702.432251 903.427185,708.972229 
	C897.335999,714.150146 891.246216,719.335571 885.308044,724.686462 
	C868.993530,739.387512 852.758911,754.177307 836.230774,769.169556 
	C839.282593,772.023926 841.667969,774.254883 844.018372,776.453247 
	C850.585938,770.545044 854.984741,769.611450 860.403198,773.282349 
	C867.342896,777.984009 865.317932,784.380859 862.856445,790.881531 
	C865.746704,792.754639 868.479187,794.525452 872.158997,796.910278 
	C884.052734,772.785645 896.039612,749.299744 907.237244,725.443481 
	C913.769226,711.527161 920.809021,698.356445 931.542236,686.950012 
	C939.068298,678.951965 944.382019,668.872070 951.041809,660.056702 
	C951.041809,660.056702 951.396362,660.395264 951.183899,661.061462 
	C946.004333,671.612488 939.503906,681.744507 935.988647,692.823608 
	C931.850647,705.865356 926.273193,717.770569 918.302368,728.742859 
	C914.884766,733.447510 911.696106,738.325012 908.543579,743.214417 
	C896.959900,761.180542 885.434937,779.184631 873.680908,797.497070 
	C877.373901,799.424561 880.265198,800.933594 883.111938,802.419373 
	C887.823486,795.267151 892.145325,793.063538 898.190430,795.148743 
	C906.216736,797.917236 905.423157,804.867615 905.059692,811.573792 
	C908.324585,812.559509 911.394836,813.486511 915.434814,814.706238 
	C920.359985,790.590820 925.249207,767.052917 929.950256,743.477478 
	C932.636047,730.008362 932.592224,715.706299 939.496338,703.490173 
	C946.699890,690.744385 950.787659,677.009460 955.120483,663.265320 
	C955.455933,662.201294 956.042236,661.216309 956.511963,660.194580 
	C957.055664,661.417175 957.020203,662.399841 956.789673,663.334351 
	C953.254272,677.662781 949.218872,691.817017 949.634705,706.908997 
	C949.808044,713.200256 947.956482,719.750305 946.008972,725.858521 
	C940.423340,743.377686 934.147644,760.675842 928.475464,778.168640 
	C924.555786,790.256531 921.187561,802.523193 917.426819,815.202393 
	C921.259338,815.995178 924.394775,816.643799 927.478333,817.281616 
	C929.908508,809.452637 933.019409,806.582397 939.210632,806.529114 
	C948.484619,806.449219 949.466858,813.827454 951.169373,820.646851 
	C954.444031,820.646851 957.527527,820.646851 962.066772,820.646851 
	C960.188110,793.054993 958.254089,765.705872 956.504700,738.344971 
	C955.944092,729.576599 954.391235,720.515625 955.886780,712.046631 
	C958.932434,694.800110 961.133240,677.588440 961.622192,659.980896 
	C961.972778,660.085693 962.323303,660.190491 962.657898,661.195557 
	C963.047913,677.636475 962.481689,694.128784 967.632263,710.151978 
	C969.018738,714.464966 969.097107,719.385498 968.890381,723.987366 
	C968.330139,736.460022 967.049255,748.900513 966.504395,761.373535 
	C965.654053,780.838013 965.172852,800.318726 964.561523,819.793396 
	C964.553223,820.059326 964.888062,820.335999 965.247498,820.894958 
	C968.205078,820.727661 971.322388,820.551270 973.531311,820.426331 
	C975.043518,816.511780 975.544250,812.549500 977.729248,810.073425 
	C983.624695,803.392639 991.878784,805.300903 996.320923,813.669556 
	C997.029358,815.004089 998.697083,816.762024 999.873596,816.726746 
	C1002.557190,816.646362 1005.211243,815.575439 1008.890564,814.652771 
	C999.442810,787.301086 990.027649,760.585449 981.040283,733.726685 
	C977.953735,724.502563 974.348694,715.011353 973.804626,705.480896 
	C973.000793,691.400452 970.245422,677.859802 967.165100,664.262268 
	C966.955139,663.335327 967.137634,662.319580 967.137634,661.345093 
	C968.266541,662.533203 968.680359,663.755249 969.053650,664.989563 
	C973.176086,678.619446 976.631958,692.442078 984.432983,704.735168 
	C987.202637,709.099548 988.864258,714.420715 989.984314,719.534485 
	C994.884277,741.906128 999.289124,764.385803 1004.108337,786.775757 
	C1006.078796,795.930603 1008.643799,804.957458 1010.964661,814.146790 
	C1014.615295,812.944397 1017.569946,811.971252 1020.477966,811.013428 
	C1018.823425,802.594482 1020.379333,798.229431 1025.890625,795.275146 
	C1031.188843,792.435120 1035.088745,793.940979 1042.550049,801.835449 
	C1045.355957,800.403503 1048.229980,798.936890 1051.254761,797.393372 
	C1050.754028,796.365662 1050.473999,795.589966 1050.034668,794.918396 
	C1036.479980,774.197693 1023.013245,753.418274 1009.299194,732.803467 
	C1002.234741,722.184448 993.906677,712.451538 989.574585,700.079163 
	C986.031433,689.960022 981.455261,680.197876 977.214661,670.330078 
	C975.585876,666.539917 973.618347,662.895447 972.163940,658.879578 
	C972.163940,658.879578 972.525452,658.577759 972.968445,659.086914 
	C980.564026,670.532166 986.642883,682.937805 996.433105,692.987366 
	C1002.028870,698.731262 1006.987976,705.423462 1010.862732,712.445190 
	C1018.142090,725.636414 1024.235229,739.475830 1031.178101,752.860901 
	C1038.567505,767.106567 1046.369751,781.138000 1054.121460,795.503235 
	C1057.473511,793.359375 1060.230225,791.596313 1062.968506,789.844971 
	C1058.732666,782.546936 1059.044678,777.969177 1063.860596,773.370667 
	C1068.084473,769.337463 1072.516602,769.767761 1081.721680,775.247925 
	C1084.088867,773.103455 1086.530640,770.891357 1089.635742,768.078369 
	C1071.274292,751.930237 1053.112305,736.064209 1035.078003,720.054504 
	C1025.284546,711.360474 1015.100159,702.987549 1006.209900,693.429993 
	C997.782837,684.370300 990.788879,673.973328 983.252075,664.097717 
	C982.614563,663.262329 982.638733,661.921875 983.154175,661.423645 
	C991.357666,668.159729 999.505066,674.965759 1007.782776,681.609436 
	C1014.228943,686.783020 1021.622803,691.013977 1027.224854,696.956116 
	C1043.327759,714.036560 1058.613770,731.884094 1074.484131,749.188721 
	C1079.819580,755.006409 1085.946289,760.098389 1091.769653,765.576843 
	C1093.676025,763.460449 1095.786865,761.117126 1097.884766,758.788086 
	C1092.278564,752.639038 1091.206909,747.957092 1094.469604,742.731567 
	C1099.153564,735.229858 1105.775269,737.848389 1112.296143,739.833862 
	C1114.078369,736.996033 1115.786621,734.275879 1118.042847,730.683167 
	C1095.608032,719.616882 1073.803955,708.747681 1051.892822,698.098511 
	C1039.689697,692.167480 1026.111328,688.485657 1016.184448,678.774109 
	C1006.662842,669.458923 995.593933,662.550354 984.540039,655.478516 
	C982.026733,653.870605 979.531189,652.234863 977.027466,650.611938 
	C981.127991,651.716736 984.638245,653.812073 988.308655,655.573730 
	C997.107910,659.796997 1005.673767,664.852112 1014.907349,667.734558 
	C1025.649170,671.087830 1035.603149,675.387146 1045.021484,681.546753 
	C1067.957886,696.547302 1091.171143,711.124695 1114.289917,725.845642 
	C1115.757324,726.780029 1117.371216,727.484192 1119.124390,728.404297 
	C1120.776245,725.191589 1122.191406,722.439270 1123.588257,719.722534 
	C1116.274780,714.755249 1114.015381,710.215637 1116.389771,704.314514 
	C1119.362793,696.925659 1125.749023,696.913635 1132.522583,697.851501 
	C1133.566406,694.633423 1134.569336,691.541016 1135.594238,688.381287 
	C1134.609863,687.986145 1133.866455,687.557068 1133.067627,687.386230 
	C1112.140747,682.911499 1091.279297,678.086060 1070.255737,674.120544 
	C1050.576904,670.408691 1030.678711,668.565491 1012.640686,658.096313 
	C1003.560669,652.826416 992.576477,650.837463 982.453369,647.364807 
	C984.219910,647.103516 985.951904,647.221924 987.647400,647.536987 
	C998.070068,649.473938 1008.442688,651.730164 1018.917114,653.319519 
	C1025.285522,654.285950 1031.996826,653.419373 1038.215088,654.849915 
	C1047.701660,657.032593 1056.908936,660.446594 1066.209717,663.416260 
	C1089.367920,670.810120 1112.511719,678.248352 1136.159424,685.828430 
	C1137.021362,681.594543 1137.662964,678.443054 1138.287964,675.372681 
	C1130.023438,672.205200 1126.871338,668.599487 1127.404419,662.552185 
	C1128.140015,654.206238 1134.909668,653.005615 1141.470703,651.548767 
	C1141.634033,648.308167 1141.790039,645.213806 1142.005615,640.935730 
	C1117.362305,642.478943 1093.299438,643.703918 1069.288086,645.586060 
	C1052.581421,646.895569 1036.229370,648.879639 1019.251953,645.396301 
	C1004.250977,642.318481 988.489502,642.946899 972.824768,641.499817 
	C972.904724,641.353516 972.984619,641.207275 973.993774,641.057312 
	C979.821594,640.986511 985.668518,641.189331 991.473022,640.784424 
	C1001.558167,640.080994 1011.862305,640.064087 1021.624573,637.809998 
	C1033.671265,635.028442 1045.552124,634.639343 1057.730469,635.282166 
	C1084.815063,636.711975 1111.917236,637.813782 1139.013672,639.015137 
	C1139.908569,639.054810 1140.819824,638.724854 1141.820923,638.550232 
	C1141.569092,635.289001 1141.341187,632.335510 1141.117188,629.434814 
	C1132.283325,628.389893 1128.507080,625.857300 1127.330322,619.515503 
	C1125.786377,611.194946 1132.363647,608.543823 1138.130371,605.479553 
	C1137.715210,603.632324 1137.372314,602.022095 1136.988159,600.421875 
	C1136.623657,598.903381 1136.215820,597.395386 1135.592896,594.971375 
	C1111.722900,603.012756 1088.536987,610.923279 1065.279419,618.617615 
	C1053.358154,622.561584 1041.474243,626.844421 1029.265869,629.622192 
	C1019.473694,631.850220 1009.203064,631.921997 999.173889,633.182678 
	C993.770874,633.861755 988.429138,635.028259 982.950745,635.500000 
	C982.950745,635.500000 983.059937,635.025146 983.844177,634.963745 
	C997.688477,631.042725 1011.766113,627.960083 1024.291382,620.165405 
	C1029.104736,617.170044 1034.859619,615.230530 1040.447510,614.019226 
	C1060.233887,609.729797 1080.164429,606.108765 1099.979004,601.942749 
	C1111.727295,599.472717 1123.360474,596.455505 1135.277710,593.629211 
	C1134.116089,589.967957 1133.182251,587.024780 1132.268188,584.143372 
	C1123.139526,585.372803 1119.413940,584.070618 1116.606323,578.518860 
	C1112.648315,570.692200 1118.205322,566.317871 1123.215942,561.847046 
	C1121.601074,558.735901 1120.120117,555.882935 1118.101562,551.994263 
	C1093.884521,568.219666 1070.201416,584.201111 1046.380737,599.974609 
	C1039.626343,604.447144 1032.921143,609.664856 1025.403442,612.173645 
	C1010.059814,617.294067 995.510437,623.888306 981.315002,631.468933 
	C980.515503,631.895874 979.424011,631.776001 977.740173,632.013184 
	C991.467041,622.993042 1005.603699,616.253845 1016.533142,604.588318 
	C1021.069946,599.745972 1027.204712,596.077881 1033.180298,592.965088 
	C1053.920654,582.160950 1074.949707,571.912659 1095.782227,561.282837 
	C1102.792603,557.705750 1109.544067,553.620911 1116.582520,549.673462 
	C1114.519043,546.453247 1112.847046,543.843811 1111.201294,541.275391 
	C1103.542969,545.144287 1099.425537,544.991577 1095.016846,540.466553 
	C1088.694458,533.977478 1092.894043,528.086182 1096.680908,522.341919 
	C1094.333130,519.799622 1092.213501,517.504272 1090.038574,515.149048 
	C1089.459351,515.568604 1089.019287,515.784668 1088.714722,516.122742 
	C1072.552612,534.061584 1056.430054,552.036255 1040.238281,569.948242 
	C1032.002197,579.059387 1024.633545,589.330688 1015.077881,596.772705 
	C1004.348938,605.128418 992.962891,612.636475 983.116028,622.138123 
	C982.515442,622.717651 981.357544,622.719482 980.458862,622.990051 
	C989.370422,612.701660 997.204590,602.045837 1005.270142,591.568115 
	C1009.212708,586.446533 1013.166626,581.209290 1017.854675,576.812683 
	C1026.716675,568.501526 1036.232666,560.892517 1045.259399,552.750793 
	C1059.557251,539.854980 1073.676025,526.760986 1088.169800,513.476562 
	C1085.181763,510.673096 1082.827759,508.464630 1080.497681,506.278503 
	C1074.050171,512.024597 1069.437866,512.893127 1064.173706,509.542297 
	C1059.925781,506.838409 1057.999390,502.014343 1060.222900,496.395355 
	C1061.779297,492.462372 1060.813965,490.641968 1057.463379,489.061554 
	C1056.042847,488.391541 1054.736938,487.478485 1053.223511,486.584106 
	C1052.335327,488.066284 1051.587769,489.157471 1050.994385,490.326935 
	C1039.665894,512.654907 1028.416748,535.023315 1017.012268,557.312378 
	C1012.265625,566.589294 1008.533875,576.828125 1001.963074,584.626465 
	C991.843872,596.636230 982.647522,609.133118 974.310730,622.360046 
	C974.071899,622.739014 973.390442,622.839111 972.856384,622.330383 
	C975.362976,617.656433 978.082153,613.081970 980.326111,608.285156 
	C983.685486,601.103943 986.720398,593.770569 989.875977,586.494446 
	C993.151245,578.942261 995.514099,570.821533 999.838684,563.930176 
	C1012.108093,544.378662 1025.255615,525.380249 1037.885620,506.051697 
	C1042.290283,499.310791 1046.192749,492.241730 1050.508545,485.014587 
	C1047.157227,483.293335 1044.321655,481.836884 1041.539917,480.408142 
	C1036.709229,487.692474 1032.459961,489.648254 1026.430420,487.645264 
	C1021.142273,485.888580 1018.856750,481.147247 1019.511658,473.308960 
	C1019.524963,473.150177 1019.448059,472.983826 1019.742554,472.366608 
z"/>
<path fill="#FCFDFE" opacity="1.000000" stroke="none" 
	d="
M944.501038,650.437134 
	C934.052734,655.490112 924.026001,661.938416 913.052856,665.254578 
	C898.244507,669.729614 885.619751,677.280518 873.071289,685.881042 
	C852.106812,700.249817 830.531311,713.727295 809.203491,727.565369 
	C808.240784,728.190063 807.185364,728.671936 805.648254,729.504761 
	C804.093567,726.501892 802.613220,723.642639 801.153076,720.822327 
	C809.267212,712.961731 810.684753,709.252075 807.703125,703.880066 
	C804.582520,698.257690 800.128113,696.733948 792.254456,698.889221 
	C791.266296,695.815308 790.268311,692.710938 789.063660,688.963623 
	C800.206604,686.306152 811.232727,683.411438 822.376343,681.076904 
	C842.361084,676.890259 862.453918,673.215942 882.418030,668.937500 
	C888.019653,667.737000 893.851685,666.026672 898.672913,663.072754 
	C912.096436,654.848267 927.179199,651.539917 941.895691,647.059265 
	C943.431274,646.591736 944.955872,646.087830 946.292725,644.784973 
	C940.818909,645.893066 935.314331,646.869507 929.877808,648.137451 
	C919.493530,650.559326 908.983948,651.457642 898.368530,652.412048 
	C887.987427,653.345215 877.725403,656.898865 867.693726,660.169312 
	C841.394836,668.742859 815.250061,677.789001 788.477661,686.838196 
	C787.491455,682.651978 786.755859,679.529480 785.945007,676.087708 
	C792.123535,673.016846 798.769592,670.059021 796.688293,661.261230 
	C795.288391,655.343567 791.722473,653.105164 783.180176,652.351379 
	C783.180176,649.149292 783.180176,645.912170 783.180176,643.367126 
	C796.110413,643.367126 808.912842,642.872681 821.662292,643.482727 
	C840.952515,644.405701 860.195557,646.286804 879.481567,647.341797 
	C884.893677,647.637817 890.701294,647.435120 895.782593,645.784058 
	C910.901733,640.871277 926.423401,642.338989 942.734009,641.830200 
	C944.458679,642.022827 945.295349,642.202820 946.078796,642.069641 
	C951.488647,641.150452 955.728027,641.906738 956.047729,649.041138 
	C957.688904,650.600098 959.258301,651.800171 960.858459,653.442749 
	C960.952942,655.952332 961.016663,658.019470 961.080444,660.086548 
	C961.133240,677.588440 958.932434,694.800110 955.886780,712.046631 
	C954.391235,720.515625 955.944092,729.576599 956.504700,738.344971 
	C958.254089,765.705872 960.188110,793.054993 962.066772,820.646851 
	C957.527527,820.646851 954.444031,820.646851 951.169373,820.646851 
	C949.466858,813.827454 948.484619,806.449219 939.210632,806.529114 
	C933.019409,806.582397 929.908508,809.452637 927.478333,817.281616 
	C924.394775,816.643799 921.259338,815.995178 917.426819,815.202393 
	C921.187561,802.523193 924.555786,790.256531 928.475464,778.168640 
	C934.147644,760.675842 940.423340,743.377686 946.008972,725.858521 
	C947.956482,719.750305 949.808044,713.200256 949.634705,706.908997 
	C949.218872,691.817017 953.254272,677.662781 956.789673,663.334351 
	C957.020203,662.399841 957.055664,661.417175 956.511963,660.194580 
	C956.042236,661.216309 955.455933,662.201294 955.120483,663.265320 
	C950.787659,677.009460 946.699890,690.744385 939.496338,703.490173 
	C932.592224,715.706299 932.636047,730.008362 929.950256,743.477478 
	C925.249207,767.052917 920.359985,790.590820 915.434814,814.706238 
	C911.394836,813.486511 908.324585,812.559509 905.059692,811.573792 
	C905.423157,804.867615 906.216736,797.917236 898.190430,795.148743 
	C892.145325,793.063538 887.823486,795.267151 883.111938,802.419373 
	C880.265198,800.933594 877.373901,799.424561 873.680908,797.497070 
	C885.434937,779.184631 896.959900,761.180542 908.543579,743.214417 
	C911.696106,738.325012 914.884766,733.447510 918.302368,728.742859 
	C926.273193,717.770569 931.850647,705.865356 935.988647,692.823608 
	C939.503906,681.744507 946.004333,671.612488 951.526306,660.507446 
	C952.252136,658.973938 952.635620,657.994385 953.333679,656.886841 
	C953.682251,656.234131 953.716187,655.709473 953.750122,655.184814 
	C953.332153,655.671570 952.914185,656.158325 952.280518,656.858887 
	C951.604370,657.955811 951.144104,658.838867 950.683777,659.721924 
	C944.382019,668.872070 939.068298,678.951965 931.542236,686.950012 
	C920.809021,698.356445 913.769226,711.527161 907.237244,725.443481 
	C896.039612,749.299744 884.052734,772.785645 872.158997,796.910278 
	C868.479187,794.525452 865.746704,792.754639 862.856445,790.881531 
	C865.317932,784.380859 867.342896,777.984009 860.403198,773.282349 
	C854.984741,769.611450 850.585938,770.545044 844.018372,776.453247 
	C841.667969,774.254883 839.282593,772.023926 836.230774,769.169556 
	C852.758911,754.177307 868.993530,739.387512 885.308044,724.686462 
	C891.246216,719.335571 897.335999,714.150146 903.427185,708.972229 
	C911.120728,702.432251 916.790588,694.394165 922.329712,685.982239 
	C927.770203,677.720093 934.933899,670.590759 941.367126,662.986023 
	C942.589233,661.541321 943.931396,660.198120 944.473206,657.971436 
	C943.508118,658.658691 942.461304,659.255981 941.590332,660.046936 
	C932.234558,668.543091 922.884583,676.889587 911.854004,683.423340 
	C899.287354,690.866943 891.913147,703.754822 882.400574,714.400818 
	C866.977478,731.661560 851.331116,748.722778 835.768860,765.858948 
	C835.347473,766.322998 834.810669,766.682129 834.036438,767.336243 
	C831.855530,764.876892 829.791931,762.549805 827.536499,760.006409 
	C831.507690,754.145813 835.348389,748.153015 829.018372,741.734314 
	C824.641724,737.296387 820.445007,737.224121 813.093384,741.235657 
	C811.371460,738.534668 809.625549,735.795959 807.480042,732.430603 
	C821.732056,724.836121 835.643433,717.215576 849.748352,709.971985 
	C861.253479,704.063660 872.921204,698.458557 884.644409,692.992493 
	C895.160645,688.089172 903.962524,681.098755 912.763306,673.553589 
	C922.510742,665.196655 934.059021,658.940247 945.339478,651.415894 
	C946.544373,650.339539 947.232971,649.616394 948.231445,649.063354 
	C948.963684,649.054871 949.386047,648.876160 949.808411,648.697510 
	C949.655640,648.482910 949.384644,648.071777 949.367249,648.082336 
	C948.896484,648.365295 948.451843,648.691650 947.678223,648.980286 
	C946.402771,649.445679 945.451904,649.941406 944.501038,650.437134 
M948.507263,654.028320 
	C948.184387,654.292603 947.861511,654.556885 947.538574,654.821106 
	C948.051086,654.557556 948.563599,654.293945 949.445374,653.762817 
	C949.677551,653.561768 949.874634,653.330872 950.654053,652.935181 
	C951.526917,652.268799 952.399780,651.602356 953.272644,650.935974 
	C952.893005,650.592346 952.513306,650.248657 952.133606,649.905029 
	C951.397095,650.923218 950.660645,651.941406 949.556641,653.228577 
	C949.322632,653.426941 949.125977,653.657227 948.507263,654.028320 
M951.023010,645.619751 
	C951.413391,646.051025 951.803833,646.482300 952.194275,646.913574 
	C952.122986,646.259216 952.051636,645.604919 951.760925,644.548645 
	C951.380493,644.327637 951.000000,644.106628 950.619568,643.885620 
	C950.751831,644.281128 950.884094,644.676697 951.023010,645.619751 
M957.497314,657.213867 
	C957.393127,657.700195 957.288879,658.186584 957.184631,658.672913 
	C957.447266,658.359680 957.709900,658.046448 957.497314,657.213867 
z"/>
<path fill="#FCFDFE" opacity="1.000000" stroke="none" 
	d="
M983.059753,635.974854 
	C988.429138,635.028259 993.770874,633.861755 999.173889,633.182678 
	C1009.203064,631.921997 1019.473694,631.850220 1029.265869,629.622192 
	C1041.474243,626.844421 1053.358154,622.561584 1065.279419,618.617615 
	C1088.536987,610.923279 1111.722900,603.012756 1135.592896,594.971375 
	C1136.215820,597.395386 1136.623657,598.903381 1136.988159,600.421875 
	C1137.372314,602.022095 1137.715210,603.632324 1138.130371,605.479553 
	C1132.363647,608.543823 1125.786377,611.194946 1127.330322,619.515503 
	C1128.507080,625.857300 1132.283325,628.389893 1141.117188,629.434814 
	C1141.341187,632.335510 1141.569092,635.289001 1141.820923,638.550232 
	C1140.819824,638.724854 1139.908569,639.054810 1139.013672,639.015137 
	C1111.917236,637.813782 1084.815063,636.711975 1057.730469,635.282166 
	C1045.552124,634.639343 1033.671265,635.028442 1021.624573,637.809998 
	C1011.862305,640.064087 1001.558167,640.080994 991.473022,640.784424 
	C985.668518,641.189331 979.821594,640.986511 973.168213,640.955322 
	C971.042603,640.734192 969.742554,640.615112 967.336731,640.394714 
	C969.120117,639.022522 969.956848,638.378662 970.790405,637.986267 
	C970.874878,638.642456 970.962646,639.047180 971.050354,639.451904 
	C971.181274,639.385925 971.432312,639.279907 971.425659,639.259949 
	C971.243835,638.715698 971.035706,638.180176 970.707642,637.552490 
	C970.583374,637.461731 970.698853,637.176453 970.928223,636.979797 
	C970.997070,636.124084 970.836548,635.465027 970.646973,634.446655 
	C970.731079,633.381042 970.844177,632.674683 971.091370,631.961731 
	C971.153809,631.980347 971.082153,632.005676 970.748535,632.199707 
	C969.656433,632.975403 968.826233,633.582397 967.996704,633.805481 
	C967.971680,632.665588 967.946045,631.909729 967.959717,631.094360 
	C967.999084,631.034851 968.079407,630.917053 968.396729,630.852783 
	C969.471863,629.525940 970.229736,628.263367 971.079102,626.801941 
	C971.438477,626.258972 971.706360,625.914856 972.304443,625.327820 
	C972.767822,624.360962 972.900940,623.637085 973.005493,622.953003 
	C972.976868,622.992859 972.915344,623.069214 972.915344,623.069214 
	C973.390442,622.839111 974.071899,622.739014 974.310730,622.360046 
	C982.647522,609.133118 991.843872,596.636230 1001.963074,584.626465 
	C1008.533875,576.828125 1012.265625,566.589294 1017.012268,557.312378 
	C1028.416748,535.023315 1039.665894,512.654907 1050.994385,490.326935 
	C1051.587769,489.157471 1052.335327,488.066284 1053.223511,486.584106 
	C1054.736938,487.478485 1056.042847,488.391541 1057.463379,489.061554 
	C1060.813965,490.641968 1061.779297,492.462372 1060.222900,496.395355 
	C1057.999390,502.014343 1059.925781,506.838409 1064.173706,509.542297 
	C1069.437866,512.893127 1074.050171,512.024597 1080.497681,506.278503 
	C1082.827759,508.464630 1085.181763,510.673096 1088.169800,513.476562 
	C1073.676025,526.760986 1059.557251,539.854980 1045.259399,552.750793 
	C1036.232666,560.892517 1026.716675,568.501526 1017.854675,576.812683 
	C1013.166626,581.209290 1009.212708,586.446533 1005.270142,591.568115 
	C997.204590,602.045837 989.370422,612.701660 980.458862,622.990051 
	C981.357544,622.719482 982.515442,622.717651 983.116028,622.138123 
	C992.962891,612.636475 1004.348938,605.128418 1015.077881,596.772705 
	C1024.633545,589.330688 1032.002197,579.059387 1040.238281,569.948242 
	C1056.430054,552.036255 1072.552612,534.061584 1088.714722,516.122742 
	C1089.019287,515.784668 1089.459351,515.568604 1090.038574,515.149048 
	C1092.213501,517.504272 1094.333130,519.799622 1096.680908,522.341919 
	C1092.894043,528.086182 1088.694458,533.977478 1095.016846,540.466553 
	C1099.425537,544.991577 1103.542969,545.144287 1111.201294,541.275391 
	C1112.847046,543.843811 1114.519043,546.453247 1116.582520,549.673462 
	C1109.544067,553.620911 1102.792603,557.705750 1095.782227,561.282837 
	C1074.949707,571.912659 1053.920654,582.160950 1033.180298,592.965088 
	C1027.204712,596.077881 1021.069946,599.745972 1016.533142,604.588318 
	C1005.603699,616.253845 991.467041,622.993042 977.740173,632.013184 
	C979.424011,631.776001 980.515503,631.895874 981.315002,631.468933 
	C995.510437,623.888306 1010.059814,617.294067 1025.403442,612.173645 
	C1032.921143,609.664856 1039.626343,604.447144 1046.380737,599.974609 
	C1070.201416,584.201111 1093.884521,568.219666 1118.101562,551.994263 
	C1120.120117,555.882935 1121.601074,558.735901 1123.215942,561.847046 
	C1118.205322,566.317871 1112.648315,570.692200 1116.606323,578.518860 
	C1119.413940,584.070618 1123.139526,585.372803 1132.268188,584.143372 
	C1133.182251,587.024780 1134.116089,589.967957 1135.277710,593.629211 
	C1123.360474,596.455505 1111.727295,599.472717 1099.979004,601.942749 
	C1080.164429,606.108765 1060.233887,609.729797 1040.447510,614.019226 
	C1034.859619,615.230530 1029.104736,617.170044 1024.291382,620.165405 
	C1011.766113,627.960083 997.688477,631.042725 983.245178,635.017456 
	C982.439636,635.216125 982.233093,635.361023 982.026489,635.505920 
	C982.370911,635.662231 982.715332,635.818542 983.059753,635.974854 
M977.346191,627.751221 
	C977.390564,627.493347 977.434937,627.235413 977.479370,626.977478 
	C977.361023,627.017029 977.152222,627.038086 977.139771,627.099243 
	C977.078186,627.402039 977.068298,627.715332 976.855774,628.066040 
	C976.855774,628.066040 976.778198,628.244934 976.778198,628.244934 
	C976.778198,628.244934 976.992310,627.970825 977.346191,627.751221 
M973.552551,629.578186 
	C973.795959,629.635010 974.039368,629.691772 974.282776,629.748535 
	C974.127014,629.601013 973.971313,629.453491 973.552551,629.578186 
z"/>
<path fill="#FCFDFE" opacity="1.000000" stroke="none" 
	d="
M954.039734,625.962158 
	C951.234985,620.161743 948.196777,614.460388 945.681702,608.536987 
	C942.132751,600.178833 939.322754,591.494934 935.543396,583.249939 
	C931.832703,575.154480 927.808594,567.113647 923.042725,559.607117 
	C907.815674,535.623596 892.177185,511.901428 876.712891,488.068329 
	C876.006653,486.979919 875.449463,485.794769 874.689453,484.411926 
	C877.677429,482.890472 880.470032,481.468506 883.448303,479.951965 
	C888.122681,484.830048 892.457153,490.946045 900.592590,486.296234 
	C906.025146,483.191345 907.214355,479.632690 905.507507,471.154663 
	C908.504639,470.168457 911.565552,469.161285 915.286926,467.936798 
	C917.877197,478.917603 920.682800,489.616791 922.893066,500.437592 
	C927.078918,520.930237 930.741455,541.530640 935.028137,562.001160 
	C936.201416,567.603699 937.983276,573.417114 940.940979,578.241821 
	C948.642151,590.804077 951.700806,604.915710 955.901245,618.675049 
	C956.376526,620.232056 956.797058,621.805786 958.110596,623.228333 
	C957.617859,620.502258 957.199402,617.760254 956.619751,615.052795 
	C953.907654,602.383301 950.936401,589.803528 951.138977,576.661438 
	C951.314331,565.290344 946.222107,555.108887 942.649963,544.599121 
	C934.015930,519.196350 925.545044,493.738129 916.761536,467.566986 
	C920.990234,466.578430 924.104248,465.850494 927.487183,465.059662 
	C930.490356,471.313385 933.578491,477.774872 942.348755,475.787506 
	C948.248840,474.450470 950.703674,470.514618 951.202759,462.229858 
	C954.285095,462.229858 957.386902,462.229858 960.935608,462.229858 
	C960.935608,468.973541 961.271179,475.765839 960.874634,482.515137 
	C959.517273,505.616577 957.720093,528.693176 956.494263,551.800720 
	C956.109741,559.049866 955.707642,566.715820 957.565857,573.581482 
	C961.771240,589.119141 961.691467,604.840637 961.945801,620.625366 
	C961.990967,623.428040 961.952209,626.232056 962.736084,629.058777 
	C963.164795,620.898132 963.300049,612.708557 964.101807,604.584778 
	C964.963440,595.854614 966.829224,587.218140 967.563232,578.482483 
	C968.366638,568.920654 969.035583,559.262817 968.608765,549.698303 
	C967.332581,521.102661 965.489807,492.532318 963.887207,463.951050 
	C963.852417,463.330597 964.046204,462.697296 964.131348,462.084290 
	C967.465820,462.084290 970.573486,462.084290 973.614624,462.084290 
	C976.061096,472.688446 978.630859,475.908020 984.655762,476.108185 
	C991.357422,476.330841 994.421204,473.786896 997.292847,465.331482 
	C1000.375366,465.999176 1003.510986,466.678375 1007.296204,467.498260 
	C1003.361755,480.665710 999.747986,493.708801 995.553101,506.562256 
	C990.103760,523.259766 983.977722,539.737488 978.594421,556.455200 
	C976.681824,562.394714 974.997375,568.780334 975.111511,574.926941 
	C975.401001,590.507751 971.000061,605.128296 967.555115,619.983398 
	C967.217712,621.438293 966.905884,622.899109 966.787781,624.702148 
	C966.993408,625.047119 967.070068,624.932495 966.704346,624.903687 
	C966.198608,625.583374 966.058655,626.291931 965.634521,627.288818 
	C965.228760,628.893555 965.107239,630.209839 964.992676,631.513245 
	C964.999573,631.500366 965.010132,631.473206 964.686401,631.660889 
	C963.802490,633.040344 963.242249,634.232178 963.250977,634.213562 
	C960.360229,633.704407 958.556702,633.386719 956.521973,633.204224 
	C955.844116,633.636536 955.397400,633.933594 954.780212,634.076660 
	C954.392273,633.704407 954.205139,633.462708 954.069519,632.835388 
	C953.695923,632.294128 953.301025,632.114990 952.945007,631.973877 
	C952.983887,632.011902 953.059326,632.090332 953.097046,631.715210 
	C952.725159,631.209167 952.315552,631.078247 951.943970,630.983276 
	C951.981995,631.019165 952.055298,631.093811 952.135132,630.689209 
	C951.779114,630.175049 951.343323,630.065491 950.944214,629.989624 
	C950.981018,630.023376 951.051514,630.094238 951.167175,629.660034 
	C950.824951,629.138367 950.367126,629.050781 949.944458,628.994263 
	C949.979675,629.025330 950.046692,629.091064 950.203491,628.641235 
	C949.877441,628.115967 949.394531,628.040588 948.937439,627.994263 
	C948.963257,628.023376 949.010010,628.085510 949.346924,627.840454 
	C949.119446,627.036438 948.554993,626.477417 948.021973,625.939453 
	C948.053345,625.960571 948.127686,625.974976 948.127686,625.974976 
	C941.712830,618.557007 933.759766,611.974243 929.188293,603.555359 
	C918.068176,583.076477 899.949829,569.854492 883.159546,555.038147 
	C867.577942,541.288147 852.505981,526.960510 836.786438,512.497925 
	C839.765259,509.882751 842.105225,507.828400 844.642273,505.600983 
	C850.504639,509.353790 856.454712,513.539307 862.972046,507.271484 
	C867.259338,503.148376 867.425476,498.403412 863.733704,491.298950 
	C866.422607,489.586212 869.157104,487.844391 872.484070,485.725250 
	C880.049072,500.198730 887.654236,514.305054 894.834961,528.624268 
	C900.854309,540.627441 906.499207,552.823853 912.083496,565.038208 
	C916.561768,574.833374 923.125549,582.965332 930.042542,591.164673 
	C937.581421,600.101135 943.345642,610.536804 949.855408,620.337585 
	C951.138916,622.269958 952.294678,624.287170 953.644775,626.376831 
	C953.939392,626.917297 954.098511,627.346130 954.257568,627.774963 
	C954.480286,627.647827 954.703003,627.520630 954.925659,627.393433 
	C954.630310,626.916382 954.335022,626.439270 954.039734,625.962158 
M956.496155,629.530945 
	C956.496155,629.530945 956.477905,629.485962 956.496155,629.530945 
z"/>
<path fill="#FCFDFE" opacity="1.000000" stroke="none" 
	d="
M973.063843,641.938965 
	C988.489502,642.946899 1004.250977,642.318481 1019.251953,645.396301 
	C1036.229370,648.879639 1052.581421,646.895569 1069.288086,645.586060 
	C1093.299438,643.703918 1117.362305,642.478943 1142.005615,640.935730 
	C1141.790039,645.213806 1141.634033,648.308167 1141.470703,651.548767 
	C1134.909668,653.005615 1128.140015,654.206238 1127.404419,662.552185 
	C1126.871338,668.599487 1130.023438,672.205200 1138.287964,675.372681 
	C1137.662964,678.443054 1137.021362,681.594543 1136.159424,685.828430 
	C1112.511719,678.248352 1089.367920,670.810120 1066.209717,663.416260 
	C1056.908936,660.446594 1047.701660,657.032593 1038.215088,654.849915 
	C1031.996826,653.419373 1025.285522,654.285950 1018.917114,653.319519 
	C1008.442688,651.730164 998.070068,649.473938 987.647400,647.536987 
	C985.951904,647.221924 984.219910,647.103516 982.453369,647.364807 
	C992.576477,650.837463 1003.560669,652.826416 1012.640686,658.096313 
	C1030.678711,668.565491 1050.576904,670.408691 1070.255737,674.120544 
	C1091.279297,678.086060 1112.140747,682.911499 1133.067627,687.386230 
	C1133.866455,687.557068 1134.609863,687.986145 1135.594238,688.381287 
	C1134.569336,691.541016 1133.566406,694.633423 1132.522583,697.851501 
	C1125.749023,696.913635 1119.362793,696.925659 1116.389771,704.314514 
	C1114.015381,710.215637 1116.274780,714.755249 1123.588257,719.722534 
	C1122.191406,722.439270 1120.776245,725.191589 1119.124390,728.404297 
	C1117.371216,727.484192 1115.757324,726.780029 1114.289917,725.845642 
	C1091.171143,711.124695 1067.957886,696.547302 1045.021484,681.546753 
	C1035.603149,675.387146 1025.649170,671.087830 1014.907349,667.734558 
	C1005.673767,664.852112 997.107910,659.796997 988.308655,655.573730 
	C984.638245,653.812073 981.127991,651.716736 977.027466,650.611938 
	C979.531189,652.234863 982.026733,653.870605 984.540039,655.478516 
	C995.593933,662.550354 1006.662842,669.458923 1016.184448,678.774109 
	C1026.111328,688.485657 1039.689697,692.167480 1051.892822,698.098511 
	C1073.803955,708.747681 1095.608032,719.616882 1118.042847,730.683167 
	C1115.786621,734.275879 1114.078369,736.996033 1112.296143,739.833862 
	C1105.775269,737.848389 1099.153564,735.229858 1094.469604,742.731567 
	C1091.206909,747.957092 1092.278564,752.639038 1097.884766,758.788086 
	C1095.786865,761.117126 1093.676025,763.460449 1091.769653,765.576843 
	C1085.946289,760.098389 1079.819580,755.006409 1074.484131,749.188721 
	C1058.613770,731.884094 1043.327759,714.036560 1027.224854,696.956116 
	C1021.622803,691.013977 1014.228943,686.783020 1007.782776,681.609436 
	C999.505066,674.965759 991.357666,668.159729 982.754517,661.171936 
	C982.098572,660.609253 981.842346,660.298218 981.354736,659.731934 
	C980.072937,658.623718 979.022461,657.770691 977.997681,656.949036 
	C978.023438,656.980347 978.080933,657.037415 978.026001,656.744141 
	C977.632996,656.272278 977.294983,656.093811 976.987671,655.947388 
	C977.018433,655.979370 977.085266,656.037720 977.017517,655.750977 
	C976.618042,655.280151 976.286316,655.096008 975.986938,654.945068 
	C976.019226,654.978210 976.089111,655.039062 976.009644,654.758545 
	C975.604004,654.287964 975.277954,654.097900 974.985657,653.942993 
	C975.019470,653.978027 975.092224,654.042725 975.003418,653.766541 
	C974.592896,653.295715 974.271057,653.101135 973.984497,652.943054 
	C974.019714,652.979553 974.095154,653.047363 973.999023,652.775146 
	C973.584290,652.304321 973.265686,652.105713 972.981323,651.937683 
	C973.015625,651.968262 973.089172,652.023254 972.975464,651.749573 
	C972.570984,651.207764 972.280151,650.939636 971.942993,650.435303 
	C971.653809,649.893005 971.364380,649.839661 971.009888,650.021362 
	C970.991333,650.003662 970.951477,649.971497 970.948303,649.656128 
	C970.092773,647.077942 969.240417,644.815186 968.334045,642.408936 
	C970.465820,642.197083 971.764832,642.068054 973.063843,641.938965 
M975.495667,648.531982 
	C975.495667,648.531982 975.476746,648.485840 975.495667,648.531982 
z"/>
<path fill="#FCFCFE" opacity="1.000000" stroke="none" 
	d="
M981.586121,659.987244 
	C981.842346,660.298218 982.098572,660.609253 982.355164,660.868164 
	C982.638733,661.921875 982.614563,663.262329 983.252075,664.097717 
	C990.788879,673.973328 997.782837,684.370300 1006.209900,693.429993 
	C1015.100159,702.987549 1025.284546,711.360474 1035.078003,720.054504 
	C1053.112305,736.064209 1071.274292,751.930237 1089.635742,768.078369 
	C1086.530640,770.891357 1084.088867,773.103455 1081.721680,775.247925 
	C1072.516602,769.767761 1068.084473,769.337463 1063.860596,773.370667 
	C1059.044678,777.969177 1058.732666,782.546936 1062.968506,789.844971 
	C1060.230225,791.596313 1057.473511,793.359375 1054.121460,795.503235 
	C1046.369751,781.138000 1038.567505,767.106567 1031.178101,752.860901 
	C1024.235229,739.475830 1018.142090,725.636414 1010.862732,712.445190 
	C1006.987976,705.423462 1002.028870,698.731262 996.433105,692.987366 
	C986.642883,682.937805 980.564026,670.532166 972.594238,658.525391 
	C971.804810,657.755615 971.389648,657.547485 970.974426,657.339294 
	C971.251343,657.954346 971.528259,658.569458 971.805176,659.184570 
	C973.618347,662.895447 975.585876,666.539917 977.214661,670.330078 
	C981.455261,680.197876 986.031433,689.960022 989.574585,700.079163 
	C993.906677,712.451538 1002.234741,722.184448 1009.299194,732.803467 
	C1023.013245,753.418274 1036.479980,774.197693 1050.034668,794.918396 
	C1050.473999,795.589966 1050.754028,796.365662 1051.254761,797.393372 
	C1048.229980,798.936890 1045.355957,800.403503 1042.550049,801.835449 
	C1035.088745,793.940979 1031.188843,792.435120 1025.890625,795.275146 
	C1020.379333,798.229431 1018.823425,802.594482 1020.477966,811.013428 
	C1017.569946,811.971252 1014.615295,812.944397 1010.964661,814.146790 
	C1008.643799,804.957458 1006.078796,795.930603 1004.108337,786.775757 
	C999.289124,764.385803 994.884277,741.906128 989.984314,719.534485 
	C988.864258,714.420715 987.202637,709.099548 984.432983,704.735168 
	C976.631958,692.442078 973.176086,678.619446 969.053650,664.989563 
	C968.680359,663.755249 968.266541,662.533203 967.137634,661.345093 
	C967.137634,662.319580 966.955139,663.335327 967.165100,664.262268 
	C970.245422,677.859802 973.000793,691.400452 973.804626,705.480896 
	C974.348694,715.011353 977.953735,724.502563 981.040283,733.726685 
	C990.027649,760.585449 999.442810,787.301086 1008.890564,814.652771 
	C1005.211243,815.575439 1002.557190,816.646362 999.873596,816.726746 
	C998.697083,816.762024 997.029358,815.004089 996.320923,813.669556 
	C991.878784,805.300903 983.624695,803.392639 977.729248,810.073425 
	C975.544250,812.549500 975.043518,816.511780 973.531311,820.426331 
	C971.322388,820.551270 968.205078,820.727661 965.247498,820.894958 
	C964.888062,820.335999 964.553223,820.059326 964.561523,819.793396 
	C965.172852,800.318726 965.654053,780.838013 966.504395,761.373535 
	C967.049255,748.900513 968.330139,736.460022 968.890381,723.987366 
	C969.097107,719.385498 969.018738,714.464966 967.632263,710.151978 
	C962.481689,694.128784 963.047913,677.636475 962.811401,660.292847 
	C962.964905,656.151123 962.964905,652.912109 962.964905,649.770386 
	C964.903381,649.594788 966.265930,649.471375 967.758301,649.222839 
	C967.888184,649.097717 968.142822,648.842102 968.425476,649.021240 
	C969.455933,649.457397 970.203674,649.714478 970.951477,649.971497 
	C970.951477,649.971497 970.991333,650.003662 970.818604,650.304932 
	C971.079407,651.083069 971.512939,651.559998 972.234741,652.253784 
	C972.711792,652.321411 972.900513,652.172363 973.089172,652.023254 
	C973.089172,652.023254 973.015625,651.968262 972.902466,652.331543 
	C973.224609,652.812317 973.659912,652.929810 974.095154,653.047363 
	C974.095154,653.047363 974.019714,652.979553 973.872803,653.356323 
	C974.181335,653.836365 974.636780,653.939575 975.092224,654.042725 
	C975.092224,654.042725 975.019470,653.978027 974.845032,654.374023 
	C975.143433,654.859741 975.616272,654.949402 976.089111,655.039062 
	C976.089111,655.039062 976.019226,654.978210 975.817505,655.386353 
	C976.105591,655.875549 976.595459,655.956665 977.085266,656.037720 
	C977.085266,656.037720 977.018433,655.979370 976.791199,656.392578 
	C977.069641,656.882996 977.575256,656.960205 978.080933,657.037415 
	C978.080933,657.037415 978.023438,656.980347 977.696411,657.341064 
	C978.774902,658.463684 980.180542,659.225464 981.586121,659.987244 
M966.624146,657.095886 
	C966.545654,656.703674 966.467163,656.311462 966.388672,655.919250 
	C966.130615,656.033875 965.872559,656.148499 965.614502,656.263184 
	C965.840210,656.640198 966.065918,657.017273 966.624146,657.095886 
M969.531738,655.504150 
	C969.531738,655.504150 969.485840,655.522888 969.531738,655.504150 
z"/>
<path fill="#FCFDFE" opacity="1.000000" stroke="none" 
	d="
M954.048279,633.197510 
	C954.205139,633.462708 954.392273,633.704407 954.794800,634.417542 
	C954.981812,635.594055 954.983887,636.275635 954.876099,637.338867 
	C953.390625,638.497620 952.082886,639.733154 950.623901,639.949829 
	C948.106934,640.323547 945.495911,640.063965 942.924316,640.070068 
	C927.678406,639.387085 912.588135,638.348145 897.427490,635.517883 
	C885.289185,633.251709 872.327026,634.923584 859.762146,635.517212 
	C834.203003,636.724548 808.665161,638.384094 782.607666,639.886841 
	C782.803833,635.603455 782.944519,632.532410 783.102966,629.072693 
	C789.942261,627.380676 797.630981,626.291992 797.045044,616.438721 
	C796.657349,609.920227 792.549316,606.864075 786.351379,605.514648 
	C787.041199,602.370728 787.701843,599.359741 788.525269,595.607117 
	C795.652710,597.638489 802.652527,599.361206 809.471619,601.627869 
	C830.202942,608.518677 850.918396,615.465515 871.530579,622.702454 
	C882.133057,626.424988 892.895447,627.941101 904.103149,628.806335 
	C916.051819,629.728882 927.802368,633.216736 939.639832,635.582764 
	C940.778198,635.810303 941.919128,636.025574 943.625488,636.499146 
	C945.013000,636.751770 945.833923,636.751770 946.654846,636.751770 
	C946.662048,636.573303 946.669250,636.394836 946.676453,636.216370 
	C945.795471,636.131226 944.914551,636.046082 944.033630,635.960876 
	C936.117126,633.218811 928.071960,630.793457 920.320984,627.643982 
	C912.823486,624.597534 905.905396,619.905457 898.237061,617.550293 
	C886.559937,613.963745 874.481812,611.649658 862.526855,609.008118 
	C838.719543,603.747803 814.879639,598.635193 791.057617,593.440979 
	C790.426819,593.303406 789.847656,592.928467 789.148804,592.622375 
	C790.250916,589.452881 791.322083,586.372437 792.364807,583.373840 
	C801.938538,584.276611 806.728882,582.291443 808.634094,576.804443 
	C810.722412,570.790405 808.816345,566.610229 801.478455,561.385742 
	C802.917358,558.659363 804.370300,555.906555 806.115662,552.599609 
	C812.961243,556.709229 819.717896,560.461914 826.162170,564.690613 
	C846.038818,577.733765 865.630371,591.219727 885.697021,603.959900 
	C892.026978,607.978760 899.274658,611.000549 906.506836,613.053406 
	C920.157349,616.928101 931.679688,624.860657 944.558960,631.432007 
	C945.582458,631.928833 946.126587,632.114746 946.859619,632.558289 
	C947.405884,632.707642 947.763306,632.599304 948.120667,632.490967 
	C947.764832,632.310059 947.408936,632.129150 946.977539,631.659302 
	C946.368896,631.125000 945.835754,630.879639 945.302612,630.634216 
	C943.685974,629.490051 942.104858,628.291382 940.446960,627.210571 
	C929.313660,619.952454 918.151001,612.891418 908.583496,603.365417 
	C898.383057,593.209167 884.244934,589.433411 871.717773,583.051697 
	C851.182007,572.590210 830.768616,561.888245 810.313110,551.269531 
	C809.452454,550.822754 808.687012,550.192505 807.743164,549.557556 
	C808.451050,548.429260 809.136536,547.494995 809.658264,546.476746 
	C811.545349,542.794434 813.455566,540.874329 818.360962,542.868896 
	C823.794983,545.078491 828.377747,542.861572 830.903564,538.646057 
	C833.927612,533.599121 833.435974,529.264282 829.305298,524.524780 
	C828.774048,523.915222 828.253845,523.296082 827.604675,522.536377 
	C829.855469,520.096558 831.989014,517.783875 835.056946,514.458313 
	C836.213562,516.107117 837.095703,517.676819 838.267212,518.988037 
	C858.012085,541.087585 877.706421,563.233643 897.638672,585.163391 
	C901.627808,589.552307 906.041748,594.016174 911.148010,596.838440 
	C924.198303,604.051331 934.437195,614.435974 944.985962,624.558716 
	C945.813293,625.352661 946.786987,625.994141 947.910156,626.340698 
	C948.127686,625.974976 948.053345,625.960571 947.678162,626.179871 
	C947.872009,626.961243 948.441040,627.523376 949.010010,628.085510 
	C949.010010,628.085510 948.963257,628.023376 949.018677,628.273010 
	C949.398315,628.712097 949.722534,628.901611 950.046692,629.091064 
	C950.046692,629.091064 949.979675,629.025330 950.033447,629.269531 
	C950.408630,629.707275 950.730042,629.900757 951.051514,630.094238 
	C951.051514,630.094238 950.981018,630.023376 951.034180,630.265930 
	C951.410034,630.703552 951.732666,630.898682 952.055298,631.093811 
	C952.055298,631.093811 951.981995,631.019165 952.035278,631.260376 
	C952.412109,631.697815 952.735718,631.894104 953.059326,632.090332 
	C953.059326,632.090332 952.983887,632.011902 953.044922,632.252930 
	C953.420105,632.728516 953.734192,632.963013 954.048279,633.197510 
M951.102661,638.654053 
	C951.102661,638.654053 951.014038,638.355530 951.014038,638.355530 
	C951.014038,638.355530 950.917664,638.652649 951.102661,638.654053 
M949.510010,633.109131 
	C949.430603,633.317017 949.351196,633.524841 949.271790,633.732666 
	C949.494019,633.668884 949.716248,633.605164 949.510010,633.109131 
z"/>
<path fill="#FCFCFE" opacity="1.000000" stroke="none" 
	d="
M965.010132,631.473206 
	C965.010132,631.473206 964.999573,631.500366 965.349121,631.374207 
	C966.127258,629.826050 966.555786,628.404053 967.014099,626.640869 
	C967.052673,625.843994 967.061401,625.388245 967.070068,624.932495 
	C967.070068,624.932495 966.993408,625.047119 966.960327,625.107605 
	C968.509399,620.677368 969.925293,616.119385 971.706970,611.709290 
	C975.974487,601.145203 980.068176,590.489685 984.868835,580.167358 
	C991.305664,566.326843 992.064087,551.291016 995.041321,536.709412 
	C999.714233,513.822510 1004.585693,490.976135 1009.430481,467.838257 
	C1013.055420,469.083832 1015.690491,469.989288 1018.751404,471.463989 
	C1019.255859,472.295837 1019.334473,472.558411 1019.413147,472.821014 
	C1019.448059,472.983826 1019.524963,473.150177 1019.511658,473.308960 
	C1018.856750,481.147247 1021.142273,485.888580 1026.430420,487.645264 
	C1032.459961,489.648254 1036.709229,487.692474 1041.539917,480.408142 
	C1044.321655,481.836884 1047.157227,483.293335 1050.508545,485.014587 
	C1046.192749,492.241730 1042.290283,499.310791 1037.885620,506.051697 
	C1025.255615,525.380249 1012.108093,544.378662 999.838684,563.930176 
	C995.514099,570.821533 993.151245,578.942261 989.875977,586.494446 
	C986.720398,593.770569 983.685486,601.103943 980.326111,608.285156 
	C978.082153,613.081970 975.362976,617.656433 972.885864,622.699829 
	C972.915344,623.069214 972.976868,622.992859 972.615112,623.093872 
	C972.160339,623.986877 972.067322,624.778809 971.974243,625.570740 
	C971.706360,625.914856 971.438477,626.258972 970.760498,626.883057 
	C969.593384,628.414429 968.836426,629.665710 968.079407,630.917053 
	C968.079407,630.917053 967.999084,631.034851 967.710693,631.283203 
	C966.790283,632.105286 966.158264,632.679077 965.403687,632.966858 
	C965.190796,632.278320 965.100464,631.875732 965.010132,631.473206 
z"/>
<path fill="#9CB0D7" opacity="1.000000" stroke="none" 
	d="
M964.686401,631.660889 
	C965.100464,631.875732 965.190796,632.278320 965.678223,633.167969 
	C966.715515,633.833191 967.355774,634.011292 967.996033,634.189392 
	C968.826233,633.582397 969.656433,632.975403 970.737244,632.182495 
	C970.987915,631.996582 970.957275,631.968384 970.957275,631.968384 
	C970.844177,632.674683 970.731079,633.381042 970.585938,634.841919 
	C970.602234,636.123108 970.650513,636.649780 970.698853,637.176453 
	C970.698853,637.176453 970.583374,637.461731 970.711243,637.580933 
	C970.839111,637.700134 970.793640,637.734802 970.793640,637.734802 
	C969.956848,638.378662 969.120117,639.022522 967.336731,640.394714 
	C969.742554,640.615112 971.042603,640.734192 972.703613,640.957153 
	C972.984619,641.207275 972.904724,641.353516 972.944336,641.719360 
	C971.764832,642.068054 970.465820,642.197083 968.334045,642.408936 
	C969.240417,644.815186 970.092773,647.077942 970.948303,649.656128 
	C970.203674,649.714478 969.455933,649.457397 968.323608,648.861877 
	C967.835510,648.798279 967.731934,649.073181 967.628418,649.348022 
	C966.265930,649.471375 964.903381,649.594788 962.964905,649.770386 
	C962.964905,652.912109 962.964905,656.151123 962.819397,659.842651 
	C962.323303,660.190491 961.972778,660.085693 961.351318,660.033691 
	C961.016663,658.019470 960.952942,655.952332 960.926392,653.071411 
	C960.974121,651.504333 960.984619,650.751099 960.932861,649.749878 
	C960.579346,649.343262 960.288025,649.184570 959.943970,648.762939 
	C958.586060,648.560730 957.281006,648.621460 955.975952,648.682190 
	C955.728027,641.906738 951.488647,641.150452 946.078796,642.069641 
	C945.295349,642.202820 944.458679,642.022827 943.185181,641.843201 
	C942.838562,641.338989 942.953491,640.979370 942.996338,640.344849 
	C945.495911,640.063965 948.106934,640.323547 950.623901,639.949829 
	C952.082886,639.733154 953.390625,638.497620 955.201660,637.278198 
	C956.009033,635.580261 956.381104,634.324646 956.753174,633.069031 
	C958.556702,633.386719 960.360229,633.704407 963.250977,634.213562 
	C963.242249,634.232178 963.802490,633.040344 964.686401,631.660889 
M956.993469,640.883606 
	C957.108398,640.772461 957.223328,640.661316 957.338257,640.550110 
	C957.225525,640.437012 957.093811,640.213806 957.003113,640.229431 
	C956.559143,640.305786 956.126038,640.445740 955.689087,640.563232 
	C955.964661,640.697571 956.240295,640.831970 956.993469,640.883606 
M966.464355,639.444763 
	C966.464355,639.444763 966.642578,639.548401 966.642578,639.548401 
	C966.642578,639.548401 966.619934,639.360596 966.464355,639.444763 
M968.618958,636.361145 
	C968.618958,636.361145 968.496948,636.587036 968.496948,636.587036 
	C968.496948,636.587036 968.779175,636.543823 968.618958,636.361145 
M956.430420,645.641541 
	C956.430420,645.641541 956.547424,645.440247 956.547424,645.440247 
	C956.547424,645.440247 956.291931,645.471313 956.430420,645.641541 
z"/>
<path fill="#FCFCFE" opacity="1.000000" stroke="none" 
	d="
M983.005249,635.737427 
	C982.715332,635.818542 982.370911,635.662231 982.026489,635.505920 
	C982.233093,635.361023 982.439636,635.216125 982.853027,635.048218 
	C983.059937,635.025146 982.950745,635.500000 983.005249,635.737427 
z"/>
<path fill="#FCFCFE" opacity="1.000000" stroke="none" 
	d="
M1019.577881,472.593811 
	C1019.334473,472.558411 1019.255859,472.295837 1019.090698,471.631226 
	C1019.250366,471.608368 1019.496460,471.987488 1019.577881,472.593811 
z"/>
<path fill="#FCFCFE" opacity="1.000000" stroke="none" 
	d="
M956.047729,649.041138 
	C957.281006,648.621460 958.586060,648.560730 960.079956,648.954224 
	C960.474915,649.649292 960.717041,649.845764 960.995117,649.997864 
	C960.984619,650.751099 960.974121,651.504333 960.895630,652.628906 
	C959.258301,651.800171 957.688904,650.600098 956.047729,649.041138 
z"/>
<path fill="#FCFCFE" opacity="1.000000" stroke="none" 
	d="
M949.924194,652.959595 
	C950.660645,651.941406 951.397095,650.923218 952.133606,649.905029 
	C952.513306,650.248657 952.893005,650.592346 953.272644,650.935974 
	C952.399780,651.602356 951.526917,652.268799 950.320190,652.972046 
	C949.986328,653.008911 949.924194,652.959656 949.924194,652.959595 
z"/>
<path fill="#FCFCFE" opacity="1.000000" stroke="none" 
	d="
M951.980286,644.950562 
	C952.051636,645.604919 952.122986,646.259216 952.194275,646.913574 
	C951.803833,646.482300 951.413391,646.051025 951.260498,645.315430 
	C951.497986,645.011169 951.980286,644.950562 951.980286,644.950562 
z"/>
<path fill="#0B3A9D" opacity="1.000000" stroke="none" 
	d="
M944.663208,650.622131 
	C945.451904,649.941406 946.402771,649.445679 947.657837,648.951050 
	C947.962097,648.952087 947.921570,648.893311 947.921509,648.893311 
	C947.232971,649.616394 946.544373,650.339539 945.505493,651.117432 
	C945.155273,651.172180 944.825317,650.807129 944.663208,650.622131 
z"/>
<path fill="#0B3A9D" opacity="1.000000" stroke="none" 
	d="
M953.019043,657.014832 
	C952.635620,657.994385 952.252136,658.973938 951.632568,660.174316 
	C951.396362,660.395264 951.041809,660.056702 950.862793,659.889282 
	C951.144104,658.838867 951.604370,657.955811 952.411377,656.951050 
	C952.758118,656.829285 953.018982,657.014832 953.019043,657.014832 
z"/>
<path fill="#FCFCFE" opacity="1.000000" stroke="none" 
	d="
M949.076111,654.030396 
	C948.563599,654.293945 948.051086,654.557556 947.538574,654.821167 
	C947.861511,654.556885 948.184387,654.292603 948.760498,654.005310 
	C949.013794,653.982300 949.076111,654.030396 949.076111,654.030396 
z"/>
<path fill="#FCFCFE" opacity="1.000000" stroke="none" 
	d="
M951.870605,644.749634 
	C951.980286,644.950562 951.497986,645.011169 951.257202,645.041748 
	C950.884094,644.676697 950.751831,644.281128 950.619507,643.885620 
	C951.000000,644.106628 951.380493,644.327637 951.870605,644.749634 
z"/>
<path fill="#0B3A9D" opacity="1.000000" stroke="none" 
	d="
M947.982422,648.981323 
	C948.451843,648.691650 948.896484,648.365295 949.367249,648.082336 
	C949.384644,648.071777 949.655640,648.482910 949.808411,648.697510 
	C949.386047,648.876160 948.963684,649.054871 948.231445,649.063416 
	C947.921570,648.893311 947.962097,648.952087 947.982422,648.981323 
z"/>
<path fill="#0B3A9D" opacity="1.000000" stroke="none" 
	d="
M957.734863,657.473511 
	C957.709900,658.046448 957.447266,658.359680 957.184631,658.672913 
	C957.288879,658.186584 957.393127,657.700195 957.734863,657.473511 
z"/>
<path fill="#0B3A9D" opacity="1.000000" stroke="none" 
	d="
M952.627197,656.737183 
	C952.914185,656.158325 953.332153,655.671570 953.750122,655.184814 
	C953.716187,655.709473 953.682251,656.234131 953.333618,656.886841 
	C953.018982,657.014832 952.758118,656.829285 952.627197,656.737183 
z"/>
<path fill="#FCFCFE" opacity="1.000000" stroke="none" 
	d="
M948.990234,653.950806 
	C949.125977,653.657227 949.322632,653.426941 949.740417,653.094116 
	C949.924194,652.959656 949.986328,653.008911 950.011475,653.039429 
	C949.874634,653.330872 949.677551,653.561768 949.260742,653.896606 
	C949.076111,654.030396 949.013794,653.982300 948.990234,653.950806 
z"/>
<path fill="#FCFCFE" opacity="1.000000" stroke="none" 
	d="
M968.396729,630.852783 
	C968.836426,629.665710 969.593384,628.414429 970.669067,627.081909 
	C970.229736,628.263367 969.471863,629.525940 968.396729,630.852783 
z"/>
<path fill="#FCFCFE" opacity="1.000000" stroke="none" 
	d="
M967.996704,633.805420 
	C967.355774,634.011292 966.715515,633.833191 965.800781,633.453979 
	C966.158264,632.679077 966.790283,632.105286 967.671326,631.342651 
	C967.946045,631.909729 967.971680,632.665588 967.996704,633.805420 
z"/>
<path fill="#FCFCFE" opacity="1.000000" stroke="none" 
	d="
M970.835571,637.671631 
	C971.035706,638.180176 971.243835,638.715698 971.425659,639.259949 
	C971.432312,639.279907 971.181274,639.385925 971.050354,639.451904 
	C970.962646,639.047180 970.874878,638.642456 970.790405,637.986267 
	C970.793640,637.734802 970.839111,637.700134 970.835571,637.671631 
z"/>
<path fill="#FCFCFE" opacity="1.000000" stroke="none" 
	d="
M970.928223,636.979797 
	C970.650513,636.649780 970.602234,636.123108 970.614990,635.201172 
	C970.836548,635.465027 970.997070,636.124084 970.928223,636.979797 
z"/>
<path fill="#9CB0D7" opacity="1.000000" stroke="none" 
	d="
M977.040283,628.024963 
	C977.068298,627.715332 977.078186,627.402039 977.139771,627.099243 
	C977.152222,627.038086 977.361023,627.017029 977.479370,626.977539 
	C977.434937,627.235413 977.390564,627.493347 977.178650,627.876587 
	C977.011108,628.001892 977.040283,628.024963 977.040283,628.024963 
z"/>
<path fill="#0B3A9D" opacity="1.000000" stroke="none" 
	d="
M972.304504,625.327820 
	C972.067322,624.778809 972.160339,623.986877 972.643799,623.054077 
	C972.900940,623.637085 972.767822,624.360962 972.304504,625.327820 
z"/>
<path fill="#9CB0D7" opacity="1.000000" stroke="none" 
	d="
M973.684082,629.442017 
	C973.971313,629.453491 974.127014,629.601013 974.282776,629.748535 
	C974.039368,629.691772 973.795959,629.635010 973.684082,629.442017 
z"/>
<path fill="#9CB0D7" opacity="1.000000" stroke="none" 
	d="
M977.001709,627.986328 
	C976.992310,627.970825 976.778198,628.244934 976.778198,628.244934 
	C976.778198,628.244934 976.855774,628.066040 976.947998,628.045532 
	C977.040283,628.024963 977.011108,628.001892 977.001709,627.986328 
z"/>
<path fill="#9CB0D7" opacity="1.000000" stroke="none" 
	d="
M970.999207,632.013794 
	C971.082153,632.005676 971.153809,631.980347 971.091370,631.961731 
	C970.957275,631.968384 970.987915,631.996582 970.999207,632.013794 
z"/>
<path fill="#FCFCFE" opacity="1.000000" stroke="none" 
	d="
M956.521973,633.204224 
	C956.381104,634.324646 956.009033,635.580261 955.311401,636.896545 
	C954.983887,636.275635 954.981812,635.594055 954.965210,634.571533 
	C955.397400,633.933594 955.844116,633.636536 956.521973,633.204224 
z"/>
<path fill="#9CB0D7" opacity="1.000000" stroke="none" 
	d="
M966.984253,626.982056 
	C966.555786,628.404053 966.127258,629.826050 965.342224,631.387085 
	C965.107239,630.209839 965.228760,628.893555 965.902649,627.384338 
	C966.631470,627.121643 966.807861,627.051819 966.984253,626.982056 
z"/>
<path fill="#0B3A9D" opacity="1.000000" stroke="none" 
	d="
M967.014160,626.640869 
	C966.807861,627.051819 966.631470,627.121643 966.186890,627.095947 
	C966.058655,626.291931 966.198608,625.583374 966.704346,624.903687 
	C967.061401,625.388245 967.052673,625.843994 967.014160,626.640869 
z"/>
<path fill="#0B3A9D" opacity="1.000000" stroke="none" 
	d="
M949.346924,627.840454 
	C948.441040,627.523376 947.872009,626.961243 947.646729,626.158752 
	C948.554993,626.477417 949.119446,627.036438 949.346924,627.840454 
z"/>
<path fill="#0B3A9D" opacity="1.000000" stroke="none" 
	d="
M954.073120,625.939941 
	C954.335022,626.439270 954.630310,626.916382 954.925659,627.393433 
	C954.703003,627.520630 954.480286,627.647827 954.257568,627.774963 
	C954.098511,627.346130 953.939392,626.917297 953.976440,626.180481 
	C954.172546,625.872437 954.106445,625.917725 954.073120,625.939941 
z"/>
<path fill="#0B3A9D" opacity="1.000000" stroke="none" 
	d="
M950.203491,628.641235 
	C949.722534,628.901611 949.398315,628.712097 948.992920,628.243896 
	C949.394531,628.040588 949.877441,628.115967 950.203491,628.641235 
z"/>
<path fill="#0B3A9D" opacity="1.000000" stroke="none" 
	d="
M951.167175,629.660034 
	C950.730042,629.900757 950.408630,629.707275 949.998169,629.238525 
	C950.367126,629.050781 950.824951,629.138367 951.167175,629.660034 
z"/>
<path fill="#FCFCFE" opacity="1.000000" stroke="none" 
	d="
M956.487061,629.508423 
	C956.477905,629.485962 956.496155,629.530945 956.487061,629.508423 
z"/>
<path fill="#0B3A9D" opacity="1.000000" stroke="none" 
	d="
M952.135132,630.689209 
	C951.732666,630.898682 951.410034,630.703552 950.997437,630.232178 
	C951.343323,630.065491 951.779114,630.175049 952.135132,630.689209 
z"/>
<path fill="#0B3A9D" opacity="1.000000" stroke="none" 
	d="
M953.097046,631.715210 
	C952.735718,631.894104 952.412109,631.697815 951.997192,631.224487 
	C952.315552,631.078247 952.725159,631.209167 953.097046,631.715210 
z"/>
<path fill="#0B3A9D" opacity="1.000000" stroke="none" 
	d="
M954.069519,632.835388 
	C953.734192,632.963013 953.420105,632.728516 953.006042,632.214966 
	C953.301025,632.114990 953.695923,632.294128 954.069519,632.835388 
z"/>
<path fill="#0B3A9D" opacity="1.000000" stroke="none" 
	d="
M981.354736,659.731934 
	C980.180542,659.225464 978.774902,658.463684 977.670654,657.309814 
	C979.022461,657.770691 980.072937,658.623718 981.354736,659.731934 
z"/>
<path fill="#9CB0D7" opacity="1.000000" stroke="none" 
	d="
M971.946411,652.036987 
	C971.512939,651.559998 971.079407,651.083069 970.837158,650.322632 
	C971.364380,649.839661 971.653809,649.893005 971.960571,650.777588 
	C971.998474,651.583130 971.972412,651.810059 971.946411,652.036987 
z"/>
<path fill="#0B3A9D" opacity="1.000000" stroke="none" 
	d="
M978.026001,656.744141 
	C977.575256,656.960205 977.069641,656.882996 976.760498,656.360596 
	C977.294983,656.093811 977.632996,656.272278 978.026001,656.744141 
z"/>
<path fill="#0B3A9D" opacity="1.000000" stroke="none" 
	d="
M977.017517,655.750977 
	C976.595459,655.956665 976.105591,655.875549 975.785156,655.353210 
	C976.286316,655.096008 976.618042,655.280151 977.017517,655.750977 
z"/>
<path fill="#0B3A9D" opacity="1.000000" stroke="none" 
	d="
M975.003418,653.766541 
	C974.636780,653.939575 974.181335,653.836365 973.837585,653.319824 
	C974.271057,653.101135 974.592896,653.295715 975.003418,653.766541 
z"/>
<path fill="#0B3A9D" opacity="1.000000" stroke="none" 
	d="
M976.009644,654.758545 
	C975.616272,654.949402 975.143433,654.859741 974.811218,654.338989 
	C975.277954,654.097900 975.604004,654.287964 976.009644,654.758545 
z"/>
<path fill="#0B3A9D" opacity="1.000000" stroke="none" 
	d="
M973.999023,652.775085 
	C973.659912,652.929810 973.224609,652.812317 972.868164,652.300903 
	C973.265686,652.105713 973.584290,652.304321 973.999023,652.775085 
z"/>
<path fill="#0B3A9D" opacity="1.000000" stroke="none" 
	d="
M972.234741,652.253784 
	C971.972412,651.810059 971.998474,651.583130 972.006958,651.013794 
	C972.280151,650.939636 972.570984,651.207764 972.975464,651.749573 
	C972.900513,652.172363 972.711792,652.321411 972.234741,652.253784 
z"/>
<path fill="#FCFCFE" opacity="1.000000" stroke="none" 
	d="
M975.486206,648.508911 
	C975.476746,648.485840 975.495667,648.531982 975.486206,648.508911 
z"/>
<path fill="#FCFCFE" opacity="1.000000" stroke="none" 
	d="
M966.457886,657.245117 
	C966.065918,657.017273 965.840210,656.640198 965.614502,656.263184 
	C965.872559,656.148499 966.130615,656.033875 966.388672,655.919250 
	C966.467163,656.311462 966.545654,656.703674 966.457886,657.245117 
z"/>
<path fill="#0B3A9D" opacity="1.000000" stroke="none" 
	d="
M971.984558,659.032104 
	C971.528259,658.569458 971.251343,657.954346 970.974426,657.339294 
	C971.389648,657.547485 971.804810,657.755615 972.372742,658.270752 
	C972.525452,658.577759 972.163940,658.879578 971.984558,659.032104 
z"/>
<path fill="#FCFCFE" opacity="1.000000" stroke="none" 
	d="
M969.508789,655.513550 
	C969.485840,655.522888 969.531738,655.504150 969.508789,655.513550 
z"/>
<path fill="#0B3A9D" opacity="1.000000" stroke="none" 
	d="
M943.994507,636.006836 
	C944.914551,636.046082 945.795471,636.131226 946.676453,636.216370 
	C946.669250,636.394836 946.662048,636.573303 946.654846,636.751770 
	C945.833923,636.751770 945.013000,636.751770 944.034607,636.448120 
	C943.877136,636.144531 943.955444,636.052795 943.994507,636.006836 
z"/>
<path fill="#0B3A9D" opacity="1.000000" stroke="none" 
	d="
M945.175659,630.783569 
	C945.835754,630.879639 946.368896,631.125000 946.882202,631.747681 
	C946.862427,632.124878 946.670776,632.300598 946.670776,632.300598 
	C946.126587,632.114746 945.582458,631.928833 944.911377,631.482788 
	C944.784424,631.222656 945.048706,630.932983 945.175659,630.783569 
z"/>
<path fill="#FCFCFE" opacity="1.000000" stroke="none" 
	d="
M951.010132,638.653320 
	C950.917664,638.652649 951.014038,638.355530 951.014038,638.355530 
	C951.014038,638.355530 951.102661,638.654053 951.010132,638.653320 
z"/>
<path fill="#0B3A9D" opacity="1.000000" stroke="none" 
	d="
M946.957764,632.036499 
	C947.408936,632.129150 947.764832,632.310059 948.120667,632.490967 
	C947.763306,632.599304 947.405884,632.707642 946.859619,632.558289 
	C946.670776,632.300598 946.862427,632.124878 946.957764,632.036499 
z"/>
<path fill="#0B3A9D" opacity="1.000000" stroke="none" 
	d="
M949.724243,633.325317 
	C949.716248,633.605164 949.494019,633.668884 949.271851,633.732666 
	C949.351196,633.524841 949.430603,633.317017 949.724243,633.325317 
z"/>
<path fill="#FCFCFE" opacity="1.000000" stroke="none" 
	d="
M956.754639,640.924988 
	C956.240295,640.831970 955.964661,640.697571 955.689087,640.563232 
	C956.126038,640.445740 956.559143,640.305786 957.003113,640.229431 
	C957.093811,640.213806 957.225525,640.437012 957.338257,640.550110 
	C957.223328,640.661316 957.108398,640.772461 956.754639,640.924988 
z"/>
<path fill="#FCFCFE" opacity="1.000000" stroke="none" 
	d="
M966.542114,639.402710 
	C966.619934,639.360596 966.642578,639.548401 966.642578,639.548401 
	C966.642578,639.548401 966.464355,639.444763 966.542114,639.402710 
z"/>
<path fill="#FCFCFE" opacity="1.000000" stroke="none" 
	d="
M968.699097,636.452515 
	C968.779175,636.543823 968.496948,636.587036 968.496948,636.587036 
	C968.496948,636.587036 968.618958,636.361145 968.699097,636.452515 
z"/>
<path fill="#FCFDFE" opacity="1.000000" stroke="none" 
	d="
M956.361206,645.556396 
	C956.291931,645.471313 956.547424,645.440247 956.547424,645.440247 
	C956.547424,645.440247 956.430420,645.641541 956.361206,645.556396 
z"/>
<path fill="#FCFCFE" opacity="1.000000" stroke="none" 
	d="
M967.758301,649.222900 
	C967.731934,649.073181 967.835510,648.798279 968.040894,648.682739 
	C968.142822,648.842102 967.888184,649.097717 967.758301,649.222900 
z"/>
<path fill="#FCFDFE" opacity="1.000000" stroke="none" 
	d="
M960.932861,649.749878 
	C960.717041,649.845764 960.474915,649.649292 960.132812,649.217163 
	C960.288025,649.184570 960.579346,649.343262 960.932861,649.749878 
z"/>
</svg>